<svg width="65" height="64" viewBox="0 0 65 64" fill="none" xmlns="http://www.w3.org/2000/svg">
    <path fill-rule="evenodd" clip-rule="evenodd" d="M64.625 32C64.625 49.6747 50.2997 64 32.625 64C14.9503 64 0.625 49.6747 0.625 32C0.625 14.3253 14.9503 0 32.625 0C50.2997 0 64.625 14.3253 64.625 32Z" fill="#ED2324"/>
    <path d="M39.045 47.15H33.345C32.505 47.15 30.675 46.895 29.7 45.92L25.155 42.41L26.535 40.625L31.185 44.225C31.56 44.585 32.505 44.885 33.345 44.885H39.045C40.395 44.885 41.85 43.805 42.15 42.59L45.78 31.565C46.02 30.905 45.975 30.305 45.66 29.87C45.33 29.405 44.73 29.135 43.995 29.135H37.995C37.215 29.135 36.495 28.805 36 28.235C35.49 27.65 35.265 26.87 35.385 26.06L36.135 21.245C36.315 20.405 35.745 19.46 34.935 19.19C34.2 18.92 33.255 19.31 32.925 19.79L26.775 28.94L24.915 27.695L31.065 18.545C32.01 17.135 34.08 16.46 35.7 17.075C37.575 17.69 38.775 19.76 38.355 21.68L37.62 26.405C37.605 26.51 37.605 26.66 37.71 26.78C37.785 26.855 37.89 26.9 38.01 26.9H44.01C45.48 26.9 46.755 27.515 47.505 28.58C48.24 29.615 48.39 30.98 47.91 32.3L44.325 43.22C43.77 45.395 41.46 47.15 39.045 47.15Z" fill="white"/>
    <path d="M22.695 45.5H21.195C18.42 45.5 17.07 44.195 17.07 41.525V26.825C17.07 24.155 18.42 22.85 21.195 22.85H22.695C25.47 22.85 26.82 24.155 26.82 26.825V41.525C26.82 44.195 25.47 45.5 22.695 45.5ZM21.195 25.1C19.56 25.1 19.32 25.49 19.32 26.825V41.525C19.32 42.86 19.56 43.25 21.195 43.25H22.695C24.33 43.25 24.57 42.86 24.57 41.525V26.825C24.57 25.49 24.33 25.1 22.695 25.1H21.195Z" fill="white"/>
</svg>