<svg width="65" height="64" viewBox="0 0 65 64" fill="none" xmlns="http://www.w3.org/2000/svg">
    <path fill-rule="evenodd" clip-rule="evenodd" d="M64.125 32C64.125 49.6747 49.7997 64 32.125 64C14.4503 64 0.125 49.6747 0.125 32C0.125 14.3253 14.4503 0 32.125 0C49.7997 0 64.125 14.3253 64.125 32Z" fill="#ED2324"/>
    <path d="M25.4583 21.5833C24.775 21.5833 24.2083 21.0167 24.2083 20.3333V15.3333C24.2083 14.65 24.775 14.0833 25.4583 14.0833C26.1417 14.0833 26.7083 14.65 26.7083 15.3333V20.3333C26.7083 21.0167 26.1417 21.5833 25.4583 21.5833Z" fill="white"/>
    <path d="M38.7917 21.5833C38.1083 21.5833 37.5417 21.0167 37.5417 20.3333V15.3333C37.5417 14.65 38.1083 14.0833 38.7917 14.0833C39.475 14.0833 40.0417 14.65 40.0417 15.3333V20.3333C40.0417 21.0167 39.475 21.5833 38.7917 21.5833Z" fill="white"/>
    <path d="M26.2917 36.1667C26.075 36.1667 25.8583 36.1334 25.6583 36.0334C25.4583 35.95 25.275 35.8333 25.1083 35.6833C24.8083 35.3667 24.625 34.9333 24.625 34.5C24.625 34.2833 24.675 34.0667 24.7583 33.8667C24.8417 33.6667 24.9583 33.4834 25.1083 33.3167C25.275 33.1667 25.4583 33.05 25.6583 32.9667C26.2583 32.7167 27.0083 32.85 27.475 33.3167C27.625 33.4834 27.7417 33.6667 27.825 33.8667C27.9083 34.0667 27.9583 34.2833 27.9583 34.5C27.9583 34.9333 27.775 35.3667 27.475 35.6833C27.1583 35.9833 26.725 36.1667 26.2917 36.1667Z" fill="white"/>
    <path d="M32.125 36.1667C31.6917 36.1667 31.2583 35.9833 30.9417 35.6833C30.7917 35.5166 30.675 35.3333 30.5917 35.1333C30.5083 34.9333 30.4583 34.7167 30.4583 34.5C30.4583 34.0667 30.6417 33.6333 30.9417 33.3167C31.4083 32.85 32.1417 32.7 32.7584 32.9666C32.9584 33.05 33.1417 33.1667 33.3084 33.3167C33.6084 33.6333 33.7917 34.0667 33.7917 34.5C33.7917 34.7167 33.7583 34.9333 33.6583 35.1333C33.575 35.3333 33.4584 35.5166 33.3084 35.6833C33.1417 35.8333 32.9584 35.95 32.7584 36.0333C32.5584 36.1333 32.3417 36.1667 32.125 36.1667Z" fill="white"/>
    <path d="M26.2917 42C26.075 42 25.8583 41.95 25.6583 41.8667C25.4583 41.7834 25.275 41.6667 25.1083 41.5167C24.8083 41.2 24.625 40.7833 24.625 40.3333C24.625 40.1167 24.675 39.9 24.7583 39.7C24.8417 39.4833 24.9583 39.3167 25.1083 39.15C25.275 39 25.4583 38.8833 25.6583 38.8C26.2583 38.5333 27.0083 38.6833 27.475 39.15C27.625 39.3167 27.7417 39.4833 27.825 39.7C27.9083 39.9 27.9583 40.1167 27.9583 40.3333C27.9583 40.7833 27.775 41.2 27.475 41.5167C27.1583 41.8167 26.725 42 26.2917 42Z" fill="white"/>
    <path d="M46.2917 28.3999H17.9583C17.275 28.3999 16.7083 27.8333 16.7083 27.1499C16.7083 26.4666 17.275 25.8999 17.9583 25.8999H46.2917C46.975 25.8999 47.5417 26.4666 47.5417 27.1499C47.5417 27.8333 46.975 28.3999 46.2917 28.3999Z" fill="white"/>
    <path d="M42.125 51.5833C37.7583 51.5833 34.2083 48.0333 34.2083 43.6667C34.2083 39.3 37.7583 35.75 42.125 35.75C46.4917 35.75 50.0417 39.3 50.0417 43.6667C50.0417 48.0333 46.4917 51.5833 42.125 51.5833ZM42.125 38.25C39.1417 38.25 36.7083 40.6833 36.7083 43.6667C36.7083 46.65 39.1417 49.0833 42.125 49.0833C45.1083 49.0833 47.5417 46.65 47.5417 43.6667C47.5417 40.6833 45.1083 38.25 42.125 38.25Z" fill="white"/>
    <path d="M44.6083 44.9999H39.625C38.9417 44.9999 38.375 44.4332 38.375 43.7499C38.375 43.0665 38.9417 42.4999 39.625 42.4999H44.6083C45.2917 42.4999 45.8583 43.0665 45.8583 43.7499C45.8583 44.4332 45.3083 44.9999 44.6083 44.9999Z" fill="white"/>
    <path d="M42.125 47.5499C41.4417 47.5499 40.875 46.9833 40.875 46.2999V41.3166C40.875 40.6333 41.4417 40.0666 42.125 40.0666C42.8083 40.0666 43.375 40.6333 43.375 41.3166V46.2999C43.375 46.9833 42.8083 47.5499 42.125 47.5499Z" fill="white"/>
    <path d="M37.7417 49.9167H25.4583C19.375 49.9167 15.875 46.4167 15.875 40.3333V26.1667C15.875 20.0833 19.375 16.5833 25.4583 16.5833H38.7917C44.875 16.5833 48.375 20.0833 48.375 26.1667V39.2666C48.375 39.7833 48.0583 40.25 47.5583 40.4333C47.075 40.6167 46.525 40.4833 46.175 40.0833C45.1417 38.9167 43.6583 38.25 42.1083 38.25C39.125 38.25 36.6917 40.6833 36.6917 43.6667C36.6917 44.65 36.9583 45.6167 37.475 46.45C37.7583 46.95 38.125 47.3667 38.525 47.7167C38.925 48.05 39.075 48.6 38.8917 49.1C38.7417 49.5833 38.275 49.9167 37.7417 49.9167ZM25.4583 19.0833C20.6917 19.0833 18.375 21.4 18.375 26.1667V40.3333C18.375 45.1 20.6917 47.4167 25.4583 47.4167H35.1583C34.5417 46.2833 34.2083 45 34.2083 43.6667C34.2083 39.3 37.7583 35.75 42.125 35.75C43.4417 35.75 44.7417 36.0833 45.875 36.7V26.1667C45.875 21.4 43.5583 19.0833 38.7917 19.0833H25.4583Z" fill="white"/>
</svg>