<svg width="36" height="36" viewBox="0 0 36 36" fill="none" xmlns="http://www.w3.org/2000/svg">
    <circle cx="18" cy="18" r="18" fill="#EFEFEF"/>
    <path fill-rule="evenodd" clip-rule="evenodd" d="M18.0994 17.8352C19.8264 17.8352 21.25 19.3206 21.25 20.7712C21.25 21.4327 20.9233 21.6997 20.5732 21.6997H16.5824C16.7925 22.3263 17.5043 22.7325 18.3678 22.7325C18.9162 22.7325 19.3597 22.57 19.6397 22.4076C19.7797 22.3263 19.9314 22.2683 20.1065 22.2683C20.5032 22.2683 20.8533 22.5816 20.8533 23.0226C20.8533 23.336 20.6783 23.5797 20.3398 23.7654C19.8031 24.0671 18.9396 24.1948 18.2861 24.1948C16.2907 24.1948 14.8904 22.895 14.8904 21.0382C14.8904 19.2742 16.2557 17.8352 18.0994 17.8352ZM18.0761 19.367C17.3059 19.367 16.6874 19.8893 16.5474 20.5043H19.593C19.453 19.8893 18.8462 19.367 18.0761 19.367Z" fill="#121B21"/>
    <path fill-rule="evenodd" clip-rule="evenodd" d="M21.7825 9.65851C22.2644 9.65851 22.7266 9.84994 23.0674 10.1907L25.2604 12.3837C25.6012 12.7245 25.7926 13.1867 25.7926 13.6686V18.3606C25.8073 18.3597 25.8221 18.3593 25.837 18.3593H26.8757C27.281 18.3593 27.6095 18.6878 27.6095 19.0931C27.6095 19.4983 27.281 19.8269 26.8757 19.8269H25.837C25.8221 19.8269 25.8073 19.8264 25.7926 19.8256V21.2958C25.8073 21.2949 25.8221 21.2944 25.837 21.2944H26.8757C27.281 21.2944 27.6095 21.623 27.6095 22.0282C27.6095 22.4335 27.281 22.762 26.8757 22.762H25.837C25.8221 22.762 25.8073 22.7616 25.7926 22.7607V24.2311C25.8073 24.2303 25.8221 24.2298 25.837 24.2298H26.8757C27.281 24.2298 27.6095 24.5583 27.6095 24.9636C27.6095 25.3689 27.281 25.6974 26.8757 25.6974H25.837C25.8221 25.6974 25.8073 25.697 25.7926 25.6961V26.0118C25.7926 27.0153 24.9791 27.8288 23.9756 27.8288H13.0734C12.0699 27.8288 11.2564 27.0153 11.2564 26.0118V25.6974H10.3923C9.987 25.6974 9.65847 25.3689 9.65847 24.9636C9.65847 24.5583 9.987 24.2298 10.3923 24.2298H11.2564V22.762H10.3923C9.987 22.762 9.65847 22.4335 9.65847 22.0282C9.65847 21.623 9.987 21.2944 10.3923 21.2944H11.2564V19.8269H10.3923C9.987 19.8269 9.65847 19.4983 9.65847 19.0931C9.65847 18.6878 9.987 18.3593 10.3923 18.3593H11.2564V11.4755C11.2564 10.472 12.0699 9.65851 13.0734 9.65851H21.7825ZM22.1585 26.0118C23.1621 26.0118 23.9756 25.1983 23.9756 24.1948V14.4218C23.9756 13.9399 23.7841 13.4778 23.4434 13.137L22.3141 12.0077C21.9734 11.667 21.5112 11.4755 21.0293 11.4755H14.8904C13.8869 11.4755 13.0734 12.2891 13.0734 13.2926V24.1948C13.0734 25.1983 13.8869 26.0118 14.8904 26.0118H22.1585Z" fill="#121B21"/>
</svg>
