<svg width="33" height="32" viewBox="0 0 33 32" fill="none" xmlns="http://www.w3.org/2000/svg">
    <ellipse cx="16.4525" cy="16" rx="16.4497" ry="16" fill="#3B3B3B"/>
    <path fill-rule="evenodd" clip-rule="evenodd" d="M18.035 21.3711C18.8819 21.3309 19.6323 21.1434 20.2519 20.5407C20.8715 19.938 21.0643 19.2081 21.1056 18.3845C21.1366 17.8521 21.1405 17.3235 21.1405 16.793L21.14 16.2617L21.1402 15.9956V15.9955C21.141 15.3758 21.1417 14.7599 21.1056 14.1389C21.0643 13.3153 20.8715 12.5853 20.2519 11.9827C19.6323 11.38 18.8819 11.1925 18.035 11.1523C17.3966 11.1172 16.7634 11.1179 16.1262 11.1186L15.8526 11.1188L15.579 11.1186C14.9418 11.1179 14.3086 11.1172 13.6702 11.1523C12.8234 11.1925 12.0729 11.38 11.4533 11.9827C10.8337 12.5853 10.6409 13.3153 10.5996 14.1389C10.5686 14.6713 10.5648 15.1999 10.5648 15.7304L10.5652 16.2617L10.565 16.5278C10.5642 17.1476 10.5635 17.7634 10.5996 18.3845C10.6409 19.2081 10.8337 19.938 11.4533 20.5407C12.0729 21.1434 12.8234 21.3309 13.6702 21.3711C14.3086 21.4062 14.9418 21.4055 15.579 21.4048L15.8526 21.4046L16.1262 21.4048C16.7634 21.4055 17.3966 21.4062 18.035 21.3711ZM12.7339 20.2729C12.4929 20.1791 12.3139 20.0653 12.128 19.8845C11.9421 19.7037 11.8251 19.5295 11.7287 19.2952C11.4919 18.7135 11.5045 17.4435 11.5127 16.6222V16.6222L11.5127 16.6222C11.5141 16.4885 11.5153 16.3667 11.5153 16.2617C11.5153 16.1567 11.5141 16.0349 11.5127 15.9012L11.5127 15.9011V15.9011C11.5045 15.0799 11.4919 13.8098 11.7287 13.2282C11.8251 12.9938 11.9421 12.8197 12.128 12.6389C12.3139 12.4581 12.4929 12.3443 12.7339 12.2505C13.3318 12.0202 14.6376 12.0325 15.4819 12.0405C15.6194 12.0418 15.7446 12.0429 15.8526 12.0429C15.9606 12.0429 16.0858 12.0418 16.2233 12.0405C17.0676 12.0325 18.3734 12.0202 18.9714 12.2505C19.2123 12.3443 19.3913 12.4581 19.5772 12.6389C19.7631 12.8197 19.8801 12.9938 19.9765 13.2282C20.2133 13.8098 20.2007 15.0799 20.1925 15.9011C20.1917 15.9787 20.191 16.0522 20.1905 16.1208L20.1899 16.2617C20.1899 16.3666 20.1912 16.4883 20.1925 16.6219V16.622V16.6221V16.6222V16.6223C20.2007 17.4435 20.2133 18.7135 19.9765 19.2952C19.8801 19.5295 19.7631 19.7037 19.5772 19.8845C19.3913 20.0653 19.2123 20.1791 18.9714 20.2729C18.3734 20.5032 17.0676 20.4909 16.2233 20.4829H16.2233C16.0858 20.4816 15.9606 20.4804 15.8526 20.4804C15.7446 20.4804 15.6194 20.4816 15.4819 20.4829H15.4819C14.6376 20.4909 13.3318 20.5032 12.7339 20.2729ZM19.3087 13.5161C19.3087 13.8576 19.0264 14.1322 18.6753 14.1322C18.3242 14.1322 18.0419 13.8576 18.0419 13.5161C18.0419 13.1746 18.3242 12.9 18.6753 12.9C19.0264 12.9 19.3087 13.1746 19.3087 13.5161ZM15.8526 18.9C17.3535 18.9 18.5652 17.7215 18.5652 16.2616C18.5652 14.8018 17.3535 13.6233 15.8526 13.6233C14.3517 13.6233 13.14 14.8018 13.14 16.2616C13.14 17.7215 14.3517 18.9 15.8526 18.9ZM14.0901 16.2617C14.0901 17.2059 14.8819 17.976 15.8526 17.976C16.8233 17.976 17.6151 17.2059 17.6151 16.2617C17.6151 15.3175 16.8233 14.5474 15.8526 14.5474C14.8819 14.5474 14.0901 15.3175 14.0901 16.2617Z" fill="white"/>
</svg>
