<svg width="34" height="32" viewBox="0 0 34 32" fill="none" xmlns="http://www.w3.org/2000/svg">
    <ellipse cx="17.1508" cy="16" rx="16.4497" ry="16" fill="#0570AE"/>
    <path fill-rule="evenodd" clip-rule="evenodd" d="M12.4765 11.6477C13.4179 11.6477 14.0073 11.0425 13.9991 10.286C13.991 9.51367 13.4179 8.92444 12.4928 8.92444C11.576 8.92444 10.9702 9.51367 10.9702 10.286C10.9702 11.0425 11.5514 11.6477 12.4601 11.6477H12.4765ZM18.0105 20.6136V16.2103C18.0105 15.9714 18.035 15.7405 18.1005 15.5653C18.297 15.0955 18.7391 14.6098 19.484 14.6098C20.4582 14.6098 20.8512 15.3344 20.8512 16.3934V20.6136H23.5445V16.0908C23.5445 13.6702 22.2183 12.5395 20.4419 12.5395C19.0454 12.5395 18.4008 13.2635 18.0396 13.8004L18.0103 13.8438L18.0105 12.7226H15.3171L15.3176 12.7356L15.3178 12.7419L15.3183 12.7589C15.3208 12.8599 15.3273 13.2071 15.3302 14.2282L15.3308 14.4415L15.331 14.5552L15.3315 14.9252L15.3316 15.0585L15.3316 15.6443L15.3316 15.8044L15.331 16.3188C15.3295 17.4 15.3254 18.8008 15.3171 20.6136H18.0105ZM13.8272 12.7227V20.6136H11.1257V12.7227H13.8272Z" fill="white"/>
</svg>
