<svg width="65" height="64" viewBox="0 0 65 64" fill="none" xmlns="http://www.w3.org/2000/svg">
    <path fill-rule="evenodd" clip-rule="evenodd" d="M64.375 32C64.375 49.6747 50.0497 64 32.375 64C14.7003 64 0.375 49.6747 0.375 32C0.375 14.3253 14.7003 0 32.375 0C50.0497 0 64.375 14.3253 64.375 32Z" fill="#ED2324"/>
    <path d="M27.0415 22.625C26.4265 22.625 25.9165 22.115 25.9165 21.5V17C25.9165 16.385 26.4265 15.875 27.0415 15.875C27.6565 15.875 28.1665 16.385 28.1665 17V21.5C28.1665 22.115 27.6565 22.625 27.0415 22.625Z" fill="white"/>
    <path d="M39.0415 22.625C38.4265 22.625 37.9165 22.115 37.9165 21.5V17C37.9165 16.385 38.4265 15.875 39.0415 15.875C39.6565 15.875 40.1665 16.385 40.1665 17V21.5C40.1665 22.115 39.6565 22.625 39.0415 22.625Z" fill="white"/>
    <path d="M37.5415 34.625H25.5415C24.9265 34.625 24.4165 34.115 24.4165 33.5C24.4165 32.885 24.9265 32.375 25.5415 32.375H37.5415C38.1565 32.375 38.6665 32.885 38.6665 33.5C38.6665 34.115 38.1565 34.625 37.5415 34.625Z" fill="white"/>
    <path d="M33.0415 40.625H25.5415C24.9265 40.625 24.4165 40.115 24.4165 39.5C24.4165 38.885 24.9265 38.375 25.5415 38.375H33.0415C33.6565 38.375 34.1665 38.885 34.1665 39.5C34.1665 40.115 33.6565 40.625 33.0415 40.625Z" fill="white"/>
    <path d="M37.5415 48.125H28.5415C20.1115 48.125 18.4165 44.15 18.4165 37.73V28.475C18.4165 21.365 20.8165 18.47 26.9815 18.125H39.0415C39.0565 18.125 39.0865 18.125 39.1015 18.125C45.2665 18.47 47.6665 21.365 47.6665 28.475V37.73C47.6665 44.15 45.9715 48.125 37.5415 48.125ZM27.0415 20.375C22.8415 20.615 20.6665 21.935 20.6665 28.475V37.73C20.6665 43.475 21.7615 45.875 28.5415 45.875H37.5415C44.3215 45.875 45.4165 43.475 45.4165 37.73V28.475C45.4165 21.95 43.2565 20.615 39.0115 20.375H27.0415Z" fill="white"/>
</svg>