<svg width="34" height="32" viewBox="0 0 34 32" fill="none" xmlns="http://www.w3.org/2000/svg">
    <ellipse cx="17.0503" cy="16" rx="16.4497" ry="16" fill="#E8E8E8"/>
    <mask id="mask0_1_906" style="mask-type:luminance" maskUnits="userSpaceOnUse" x="10" y="7" width="14" height="15">
        <path fill-rule="evenodd" clip-rule="evenodd" d="M10.1362 7.8501H23.3281V21.3957H10.1362V7.8501Z" fill="white"/>
    </mask>
    <g mask="url(#mask0_1_906)">
        <path fill-rule="evenodd" clip-rule="evenodd" d="M19.6864 7.8501C19.6857 8.05516 19.7137 8.27538 19.7489 8.47643H17.707V18.1467C17.707 18.5925 17.6589 18.9894 17.5628 19.3377C16.7313 21.081 14.3769 20.8532 13.7263 19.6569C14.695 20.2337 16.2876 20.0806 16.9412 18.7113C17.0365 18.3639 17.0846 17.9661 17.0846 17.5204V7.8501H19.6864ZM21.0755 10.7745C21.6018 11.1746 22.3276 11.4696 23.3282 11.5259V12.0815C22.2211 11.887 21.5193 11.3636 21.0755 10.7745ZM11.7327 21.3958C8.40102 18.6458 10.5557 12.5233 15.6779 13.2936V13.8606C11.3521 13.6693 9.44793 18.5772 11.7327 21.3958Z" fill="#00F7EF"/>
    </g>
    <mask id="mask1_1_906" style="mask-type:luminance" maskUnits="userSpaceOnUse" x="10" y="8" width="15" height="16">
        <path fill-rule="evenodd" clip-rule="evenodd" d="M10.8839 8.578H24.0604V23.5439H10.8839V8.578Z" fill="white"/>
    </mask>
    <g mask="url(#mask1_1_906)">
        <path fill-rule="evenodd" clip-rule="evenodd" d="M20.4222 8.578V8.5906C20.423 8.81842 20.4918 12.1121 24.0588 12.3175C24.0588 15.3816 24.0604 12.3175 24.0604 14.8623C23.7924 14.8777 21.7126 14.7321 20.4182 13.6135L20.4142 18.5676C20.4462 20.811 19.1575 23.0109 16.7448 23.4543C16.0688 23.5783 15.4602 23.5923 14.4384 23.376C8.5524 21.6699 10.5083 13.2105 16.4184 14.1158C16.4184 16.8468 16.42 14.115 16.42 16.8468C13.9785 16.4987 13.1618 18.4669 13.8105 19.8761C14.401 21.159 16.832 21.4373 17.6799 19.6273C17.7759 19.273 17.824 18.8692 17.824 18.4157V8.578H20.4222Z" fill="black"/>
    </g>
    <path fill-rule="evenodd" clip-rule="evenodd" d="M20.5736 8.5614V8.57401C20.5736 8.70808 20.5974 9.89867 21.3099 10.9019C20.4512 10.209 20.145 9.20793 20.0358 8.5614H20.5736ZM23.4734 12.2329C23.6603 12.2677 23.8596 12.2925 24.0712 12.305C24.0712 15.3725 24.0727 12.305 24.0727 14.8527C23.815 14.8681 21.8146 14.7223 20.5697 13.6024L20.5659 18.5621C20.5967 20.8079 19.3572 23.0102 17.0367 23.4541C16.3866 23.5783 15.8012 23.5923 14.8185 23.3757C13.7122 23.042 12.8952 22.4492 12.3367 21.7189C12.8344 22.155 13.4591 22.5081 14.2216 22.7386C15.2032 22.9544 15.7888 22.9404 16.4389 22.8162C18.7594 22.3723 19.9989 20.17 19.9688 17.925L19.972 12.9645C21.2168 14.0844 23.2172 14.231 23.4757 14.2147C23.4757 11.8487 23.4734 14.325 23.4734 12.2329ZM16.1258 14.0449C16.3196 14.0534 16.519 14.0727 16.7228 14.1053C16.7228 16.8393 16.7244 14.1045 16.7244 16.8393C14.3762 16.4909 13.5907 18.4612 14.2146 19.872C14.2261 19.8976 14.2385 19.9233 14.2515 19.948C13.9722 19.7719 13.7476 19.5298 13.6169 19.2341C12.9937 17.8233 13.7784 15.853 16.1266 16.2014C16.1266 13.6956 16.1258 15.7808 16.1258 14.0449Z" fill="#FF004F"/>
</svg>
