<svg width="34" height="32" viewBox="0 0 34 32" fill="none" xmlns="http://www.w3.org/2000/svg">
    <ellipse cx="17.3519" cy="16" rx="16.4497" ry="16" fill="#6DC4EB"/>
    <path d="M15.1824 20.5474C19.2719 20.5474 21.5094 17.2527 21.5094 14.3934C21.5094 14.2996 21.5094 14.2059 21.5025 14.1121C21.9362 13.8041 22.3149 13.4224 22.6178 12.9938C22.2185 13.1612 21.7848 13.2818 21.3373 13.3286C21.7985 13.0608 22.1496 12.6389 22.3149 12.1367C21.888 12.3844 21.4061 12.5652 20.9035 12.659C20.4973 12.2371 19.919 11.976 19.2787 11.976C18.0464 11.976 17.055 12.9469 17.055 14.1389C17.055 14.3063 17.0757 14.4737 17.1101 14.6344C15.265 14.5407 13.6196 13.6835 12.5249 12.371C12.3321 12.6925 12.222 13.0608 12.222 13.4626C12.222 14.2126 12.6144 14.8755 13.2134 15.2639C12.8485 15.2505 12.5042 15.1501 12.2082 14.9893V15.0161C12.2082 16.0675 12.9724 16.938 13.9913 17.1389C13.8054 17.1858 13.6058 17.2126 13.4061 17.2126C13.2615 17.2126 13.1239 17.1992 12.9862 17.1791C13.2684 18.0362 14.0877 18.659 15.0653 18.6791C14.3011 19.2617 13.3442 19.6032 12.3046 19.6032C12.1187 19.6032 11.9466 19.5965 11.7676 19.5764C12.7521 20.1925 13.9225 20.5474 15.1824 20.5474Z" fill="white"/>
</svg>
