<svg width="65" height="64" viewBox="0 0 65 64" fill="none" xmlns="http://www.w3.org/2000/svg">
    <path fill-rule="evenodd" clip-rule="evenodd" d="M64.375 32C64.375 49.6747 50.0497 64 32.375 64C14.7003 64 0.375 49.6747 0.375 32C0.375 14.3253 14.7003 0 32.375 0C50.0497 0 64.375 14.3253 64.375 32Z" fill="#ED2324"/>
    <path d="M26.15 48.125H22.1C18.11 48.125 16.25 46.265 16.25 42.275V38.225C16.25 34.235 18.11 32.375 22.1 32.375H26.15C30.14 32.375 32 34.235 32 38.225V42.275C32 46.265 30.14 48.125 26.15 48.125ZM22.1 34.625C19.34 34.625 18.5 35.465 18.5 38.225V42.275C18.5 45.035 19.34 45.875 22.1 45.875H26.15C28.91 45.875 29.75 45.035 29.75 42.275V38.225C29.75 35.465 28.91 34.625 26.15 34.625H22.1Z" fill="white"/>
    <path d="M36.875 48.125C36.47 48.125 36.095 47.9 35.9 47.555C35.705 47.21 35.705 46.775 35.915 46.43L37.49 43.805C37.805 43.265 38.495 43.1 39.035 43.415C39.575 43.73 39.74 44.42 39.425 44.96L39.02 45.635C43.16 44.66 46.265 40.94 46.265 36.5C46.265 35.885 46.775 35.375 47.39 35.375C48.005 35.375 48.515 35.885 48.515 36.5C48.5 42.905 43.28 48.125 36.875 48.125Z" fill="white"/>
    <path d="M17.375 28.625C16.76 28.625 16.25 28.115 16.25 27.5C16.25 21.095 21.47 15.875 27.875 15.875C28.28 15.875 28.655 16.1 28.85 16.445C29.045 16.79 29.045 17.225 28.835 17.57L27.26 20.21C26.945 20.735 26.255 20.915 25.715 20.585C25.19 20.27 25.01 19.58 25.34 19.04L25.745 18.365C21.59 19.34 18.5 23.06 18.5 27.5C18.5 28.115 17.99 28.625 17.375 28.625Z" fill="white"/>
    <path d="M40.625 31.625C36.29 31.625 32.75 28.085 32.75 23.75C32.75 19.415 36.29 15.875 40.625 15.875C44.96 15.875 48.5 19.415 48.5 23.75C48.5 28.085 44.96 31.625 40.625 31.625ZM40.625 18.125C37.52 18.125 35 20.645 35 23.75C35 26.855 37.52 29.375 40.625 29.375C43.73 29.375 46.25 26.855 46.25 23.75C46.25 20.645 43.73 18.125 40.625 18.125Z" fill="white"/>
</svg>