<svg width="34" height="32" viewBox="0 0 34 32" fill="none" xmlns="http://www.w3.org/2000/svg">
    <ellipse cx="17.2514" cy="16" rx="16.4497" ry="16" fill="#E03E3E"/>
    <path fill-rule="evenodd" clip-rule="evenodd" d="M21.0487 20.3456C21.0197 20.3482 20.993 20.3506 20.9693 20.3532C20.9693 20.3532 19.2481 20.4805 16.6526 20.4805C13.4443 20.4537 12.4598 20.3599 12.4598 20.3599C12.4148 20.3523 12.3607 20.3462 12.2995 20.3394C11.9861 20.3044 11.4884 20.2488 11.0967 19.851C11.0967 19.851 10.718 19.4827 10.6078 18.659C10.5032 17.8823 10.4867 17.1055 10.4843 16.8258V15.6976C10.4867 15.418 10.5032 14.6412 10.6078 13.8644C10.718 13.034 11.0967 12.6724 11.0967 12.6724C11.5191 12.2373 11.992 12.1949 12.2574 12.1711C12.2861 12.1685 12.3124 12.1661 12.3359 12.1635C12.3359 12.1635 14.0571 12.043 16.6526 12.043C19.2481 12.043 20.9693 12.1635 20.9693 12.1635C20.9928 12.1661 21.0191 12.1685 21.0478 12.1711C21.3131 12.1949 21.786 12.2373 22.2085 12.6724C22.2085 12.6724 22.5872 13.034 22.6973 13.8644C22.802 14.6412 22.8185 15.418 22.8209 15.6976V16.8258C22.8185 17.1055 22.802 17.8823 22.6973 18.659C22.5872 19.4827 22.2085 19.851 22.2085 19.851C21.7866 20.2795 21.3143 20.3218 21.0487 20.3456ZM15.3789 14.4469V17.8152L18.7111 16.1411L15.3789 14.4469Z" fill="white"/>
</svg>
